# xmcd CD database file
#
# Track frame offsets:
#	150
#	12373
#	26589
#	37704
#	49282
#	63655
#	75640
#	96962
#	104754
#	118617
#	144552
#	158020
#	169238
#	180004
#	197473
#
# Disc length: 2865 seconds
#
# Revision: 0
# Processed by: cddbd v1.5.2PL0 Copyright (c) Steve Scherf et al.
# Submitted via: CDex 1.70beta2
#
DISCID=bd0b2f0f
DTITLE=Various Artist - The Great Cuba
DYEAR=2002
DGENRE=Salsa
TTITLE0=Mi Soncito - Celia Cruz
TTITLE1=Caravan - Tito Puente
TTITLE2=Baila Mi Son - Mayito Fernandez Y Su Orquesta
TTITLE3=Promesas De Un Campesino - Guillermo Portables
TTITLE4=Sobre Una Tumba - Celeste Mendoza
TTITLE5=Oui Oui Monsieur - Mayito Fernandez Y Su Orquesta
TTITLE6=Resumen - Los Amigos
TTITLE7=Pachanga Pa Gozar - La Plata Sextette
TTITLE8=El Automovil -  Mayito Fernandez Y Su Orquesta
TTITLE9=La Bamba Salsa - Estefando Rodriguez
TTITLE10=Besito De Coco - Celio Gonzalez
TTITLE11=Por Tu Amor -  Mayito Fernandez Y Su Orquesta
TTITLE12=Negrita - Emilio Miguel
TTITLE13=Echale Salsita - Septeto Nacional
TTITLE14=La Gloria Eres Tu -  Mayito Fernandez Y Su Orquesta
EXTD=YEAR: 2002
EXTT0=
EXTT1=
EXTT2=
EXTT3=
EXTT4=
EXTT5=
EXTT6=
EXTT7=
EXTT8=
EXTT9=
EXTT10=
EXTT11=
EXTT12=
EXTT13=
EXTT14=
PLAYORDER=
